<svg width="115" height="48" viewBox="0 0 115 48" fill="none" xmlns="http://www.w3.org/2000/svg">
<path fill-rule="evenodd" clip-rule="evenodd" d="M52.0043 0.537616C54.5942 0.0382856 57.1362 0.42218 59.557 1.16199C65.0432 2.92542 69.8159 6.4576 73.5518 10.769C77.0474 14.7348 79.6384 20.232 78.7596 25.7523C78.6354 26.5452 78.467 27.3176 78.2582 28.069C84.5862 28.1187 90.8656 26.4199 96.0732 22.8535C98.2294 21.3618 100.227 19.4743 102.132 17.5729C104.549 15.1013 106.93 12.5037 108.705 9.60098C108.423 9.70643 108.156 9.81689 107.918 9.93037C104.266 11.2324 101.046 11.9868 97.6486 12.9837C97.3996 13.0554 97.1439 13.1291 96.9051 13.2006C96.7788 13.2383 96.6604 13.2741 96.5485 13.3097C96.5189 13.3193 96.4793 13.3339 96.4448 13.3453C96.142 13.507 95.7922 13.5561 95.4535 13.4791C95.0659 13.3911 94.7233 13.1433 94.505 12.7967C94.2867 12.45 94.2108 12.0336 94.299 11.6459C94.3871 11.2583 94.6317 10.9308 94.9743 10.7291C95.3108 10.5394 95.3259 10.5696 95.3798 10.5445C95.4272 10.5294 95.4874 10.5123 95.5214 10.5029C95.5876 10.4848 95.6825 10.4599 95.7402 10.4457C95.8777 10.4111 96.0094 10.3792 96.1469 10.3466C96.4051 10.2861 96.6699 10.2267 96.9276 10.1688C100.315 9.40105 103.984 8.69596 106.985 7.84783C107.901 7.48294 108.696 7.28751 109.537 7.07256C109.662 7.04172 109.784 7.01216 109.954 6.98249C110.047 6.96966 110.124 6.94595 110.356 6.95068C110.471 6.97383 110.699 6.91192 111.121 7.26793C111.317 7.45136 111.408 7.69849 111.434 7.81902C111.463 7.94735 111.461 8.00035 111.464 8.02031C111.468 8.23284 111.551 8.66278 111.615 9.01734C111.829 10.1474 112.064 11.3021 112.311 12.4235C112.406 12.8399 112.485 13.2236 112.616 13.5853C113.28 16.6411 113.805 19.3592 114.396 22.2482C114.5 22.7583 114.61 23.3034 114.706 23.7747C114.739 23.9157 114.713 24.0659 114.637 24.1917C114.562 24.3175 114.442 24.4092 114.302 24.4463C114.162 24.4832 114.012 24.463 113.884 24.391C113.756 24.3189 113.66 24.2012 113.619 24.0627C113.477 23.5357 113.345 23.039 113.209 22.526C112.469 19.7428 111.689 16.7746 110.985 14.1871C110.798 13.747 110.673 13.2901 110.551 12.8728C110.28 11.9155 110.03 10.9704 109.785 10.0131C107.915 13.1819 105.496 15.8467 103.01 18.4396C101.08 20.3952 99.1123 22.3035 96.811 23.9287C91.2985 27.7799 84.5632 29.6062 77.7946 29.5198C74.9485 37.424 67.5267 42.846 59.9436 45.6449C45.9334 50.851 30.1244 45.6969 18.4135 37.193C14.3182 34.2752 10.587 30.8518 7.284 27.0644C5.82736 25.3942 4.45216 23.6532 3.16511 21.8507C2.25328 20.578 1.17144 19.044 0.703955 17.1892C0.603108 16.8018 0.659366 16.3937 0.861371 16.0558C1.06338 15.7181 1.39499 15.4769 1.78141 15.3866C2.16762 15.2965 2.57763 15.3637 2.91967 15.574C3.26176 15.7844 3.50821 16.1216 3.60593 16.5095C3.90011 17.7364 4.64741 18.8828 5.56448 20.1765C6.78016 21.9091 8.08016 23.583 9.45835 25.1897C12.5839 28.8339 16.1186 32.131 19.9978 34.9432C31.2256 43.2221 46.0155 48.0896 59.0887 43.3553C65.9747 40.9049 72.6512 36.0683 75.4429 29.4113C72.1268 29.1522 68.8354 28.4376 65.7094 27.2774C59.6449 25.1229 53.8074 21.4238 50.0478 15.9235C48.1395 13.1511 46.5464 9.77953 46.872 6.16367C46.92 3.43826 49.388 0.885757 52.0043 0.537616ZM59.009 2.98997C54.9293 1.59458 48.842 1.71275 48.6621 6.379C48.3574 9.33199 49.6785 12.3614 51.4555 14.9761C54.9087 20.1213 60.3693 23.6831 66.2096 25.8136C69.3446 27.0043 72.6494 27.7304 75.9745 27.9772C76.2452 27.1366 76.4555 26.2697 76.597 25.3774C77.3886 20.666 75.2431 15.8421 72.0032 12.0889C68.525 8.0023 64.0483 4.65153 59.009 2.98997Z" fill="#10214B"/>
</svg>
