<svg width="110" height="64" viewBox="0 0 110 64" fill="none" xmlns="http://www.w3.org/2000/svg">
<path d="M42.8242 15.6783C45.0591 14.2774 47.5682 13.7175 50.0928 13.5333C55.8456 13.1967 61.5717 14.7672 66.6124 17.4387C71.3041 19.8746 75.7053 24.0653 76.8793 29.5305C77.0497 30.3147 77.1716 31.0958 77.2481 31.8719C83.1672 29.6333 88.4095 25.7817 91.9779 20.5755C93.45 18.4058 94.6312 15.9243 95.7215 13.4632C97.0826 10.2857 98.3647 7.00375 98.9717 3.65595C98.7468 3.8561 98.5381 4.05538 98.3573 4.24707C95.4214 6.7801 92.691 8.64639 89.8831 10.8027C89.6768 10.9595 89.465 11.1205 89.2681 11.2735C89.1639 11.3542 89.0664 11.4304 88.9749 11.5039C88.9508 11.5235 88.9191 11.5515 88.891 11.5746C88.6672 11.8346 88.3596 12.0074 88.0162 12.058C87.6228 12.116 87.2129 12.008 86.884 11.7635C86.5553 11.5189 86.3341 11.1581 86.2764 10.7647C86.2186 10.3714 86.3284 9.97771 86.575 9.66586C86.8204 9.36748 86.8454 9.39017 86.8865 9.34734C86.9254 9.31612 86.9752 9.27842 87.0036 9.25744C87.0587 9.21659 87.1383 9.15914 87.187 9.12502C87.3027 9.04312 87.414 8.9658 87.5304 8.88584C87.7494 8.73613 87.9749 8.58512 88.1943 8.43808C91.0757 6.49902 94.2429 4.51651 96.7354 2.64188C97.4571 1.97113 98.1282 1.50168 98.8347 0.997618C98.9403 0.923654 99.0436 0.851972 99.1915 0.76286C99.273 0.717567 99.3363 0.667616 99.5547 0.588131C99.6706 0.568073 99.8601 0.428308 100.382 0.607805C100.631 0.708059 100.806 0.905513 100.873 1.00866C100.946 1.118 100.964 1.16788 100.974 1.18568C101.054 1.38231 101.287 1.75314 101.475 2.06059C102.083 3.03724 102.719 4.02906 103.354 4.98585C103.593 5.33968 103.805 5.66899 104.058 5.95913C105.781 8.56878 107.251 10.9141 108.846 13.3946C109.127 13.833 109.427 14.3013 109.687 14.7061C109.768 14.8258 109.798 14.9753 109.773 15.1199C109.748 15.2646 109.669 15.3932 109.552 15.4783C109.435 15.5633 109.288 15.5987 109.142 15.5778C108.997 15.5567 108.865 15.4817 108.776 15.3674C108.454 14.9272 108.151 14.5116 107.839 14.0825C106.144 11.7543 104.345 9.26791 102.754 7.10923C102.421 6.76628 102.14 6.38527 101.875 6.04026C101.277 5.24531 100.702 4.45448 100.128 3.65025C99.5281 7.28053 98.235 10.6388 96.853 13.9544C95.7592 16.4751 94.6134 18.9652 93.0542 21.3117C89.3043 26.8935 83.6829 31.0288 77.3397 33.3922C77.5399 41.7909 72.5767 49.527 66.5159 54.8753C55.3308 64.7892 38.7274 65.6913 24.7359 61.9899C19.8633 60.7478 15.1477 58.9027 10.6999 56.5636C8.73848 55.5321 6.8274 54.4051 4.97631 53.1889C3.66643 52.3314 2.10366 51.2915 0.997983 49.7307C0.764033 49.4058 0.669121 49.0049 0.735497 48.6169C0.801932 48.229 1.02409 47.8844 1.35182 47.6606C1.67941 47.4371 2.08604 47.3517 2.48093 47.4243C2.87593 47.4971 3.22752 47.7225 3.4587 48.0489C4.17609 49.0869 5.28689 49.886 6.60926 50.7613C8.36857 51.938 10.1855 53.0304 12.0509 54.0312C16.2813 56.3007 20.7681 58.0982 25.4009 59.3199C38.8607 62.9859 54.4103 62.1844 64.8919 53.0489C70.4284 48.2773 74.908 41.3562 75.1076 34.1402C71.9216 35.0961 68.5942 35.6182 65.2602 35.665C58.8269 35.8458 52.0476 34.5042 46.5555 30.7326C43.7749 28.8363 41.0717 26.2675 40.0697 22.778C39.1304 20.2191 40.5102 16.9477 42.8242 15.6783ZM50.2419 15.4358C45.9336 15.6077 40.2997 17.916 41.8168 22.3324C42.599 25.1962 44.9249 27.5442 47.5261 29.3407C52.6042 32.8919 58.9825 34.2416 65.1981 34.1194C68.5515 34.0978 71.8956 33.5815 75.0854 32.611C75.0343 31.7293 74.9175 30.845 74.7272 29.9618C73.764 25.2825 70.0215 21.5588 65.6449 19.2287C60.9258 16.6738 55.5411 15.1656 50.2419 15.4358Z" fill="#10214B"/>
</svg>
